<svg xmlns="http://www.w3.org/2000/svg" height="800" width="1200" viewBox="-65.49435 -42.632 567.6177 255.792"><path d="M57.124 151.847c-7.282-5.728-15.05-11.22-20.358-18.952-11.17-13.637-19.77-29.425-25.65-46.017-3.553-10.788-4.77-22.355-9.351-32.727-4.792-7.533.821-15.768 9.073-18.162 3.673-.705 10.133-4.17 2.336-1.694-6.99 5.13-7.667-4.655-.5-5.275 4.893-.65 6.694-4.655 5.02-8.26-5.25-3.425 12.735-7.188 3.685-12.298-9.427-10.17 13.187-12.128 7.607-.578-1.335 8.882 15.802-1.628 11.826 8.63 4.04 4.925 15.133 1.12 14.858 8.03 5.887.405 7.908 5.359 13.434 5.739 5.728 2.587 16.11 4.625 18.06 11.08-5.683 4.498-18.841-9.294-19.473 3.16 1.716 18.396 1.279 37.346 8.01 54.864 3.183 10.608 10.9 18.958 17.87 27.22 6.67 8.091 15.703 13.787 24.91 18.583 8.076 3.81 16.783 6.336 25.585 7.92 3.57-2.73 9.873-12.882 15.443-8.601.264 4.81-11.054 10.055-.533 9.523 6.178-1.863 10.464 4.778 15.551-1.213 4.687 5.553 19.482-3.547 16.147 7.802-4.51 2.91-11.087 1.151-15.604 5.154-7.447-3.72-13.377 3.328-21.622 2.437-9.156 1.64-18.471 2.302-27.755 2.316-15.229-1.203-30.781-1.71-45.27-7.013-8.16-2.371-16.126-7.019-23.299-11.668zm12.862 5.573c7.97 3.446 15.763 7.079 24.497 8.174 13.857 1.928 28.166 4.892 42.073 2.188-6.294-2.842-12.801 1.107-19.071-2.032-7.52 1.618-15.59-.412-23.236-1.412-8.694-3.873-18.076-6.536-26.218-11.562-10.173-3.716 5.262 4.765 8.009 5.452 6.36 3.61-6.993-1.85-8.876-3.351-5.326-2.988-6.005-2.364-.527.67 1.103.646 2.193 1.323 3.35 1.873zm-15.165-10.717c7.723 2.86-.034-5.43-3.572-4.95-1.568-2.72-5.99-4.438-2.871-5.899-5.612 1.948-5.879-7.408-8.516-6.071-5.937-1.875-2.31-8.515-9.382-12.593-.646-4.297-7.026-8.024-9.06-14.505-.9-3.319-7.21-12.848-3.333-3.98 3.3 8.538 9.106 15.85 13.938 23.152 3.752 6.953 8.183 14.22 15.016 18.558 2.304 2.21 4.528 5.595 7.78 6.288zm-22.247-24.426c.27-1.167 1.412 2.524 0 0zm31.496 27.855c1.71-.766-2.459-.965 0 0zm4.192 1.53c-.434-2.112-1.913 1.18 0 0zm5.248 2.188c2.498-2.379-3.85-1.5 0 0zm8.994 5.013c1.518-2.244-4.859-.847 0 0zm-17.27-12.04c3.88-2.51-5.013-.034 0 0zm3.936 1.963c-.11-1.327-1.403.595 0 0zm19.674 12.28c3.163 1.997 18.47 4.375 8.885.819-1.604.338-17.772-4.573-8.885-.819zM57.61 136.74c-.307-1.33-4.91-1.47 0 0zm9.16 5.338c2.383-1.662-4.948-1.282 0 0zm7.704 4.724c3.42-1.29-5.55-1.295 0 0zm-20.59-14.12c3.71 2.845 14.967.364 5.683-1.7-4.226-2.252-13.749-3.794-7.258 1.358l1.574.341zm25.808 15.751c1.546-2.634-6.483-1.504 0 0zm-7.843-6.232c9.076 2.567-7.631-5.74-2.239-.945l1.195.54 1.044.405zm15.724 9.087c8.595.082-7.763-1.185 0 0zm-36.997-23.58c-.336-1.6-2.12.135 0 0zm51.536 31.736c.229-2.892-2.805 2.151 0 0zM65.243 136.69c-.52-1.523-2.685-.063 0 0zm-13.852-9.987c4.935-.296-6.755-2.174 0 0zm-16.41-10.607c-.614-2.365-5.369-4.252 0 0zm43.08 27.34c-.904-1.031-.425.225 0 0zm26.814 16.454c-.086-1.575-1.46.596 0 0zm-29.187-18.905c.483-2.03-4.208-.614 0 0zm-19.976-12.66c3.67-.393-5.88-2.482 0 0zm33.791 20.997c5.72-2.266-5.575-1.106 0 0zm-17.577-11.931c6.593.85-7.844-4.485-1.446-.478l1.446.478zM94.84 151.48c6.155-3.68 4.126 8.617 10.443 1.04 6.23-4.55-5.381 5.624 2.298.81 5.554-3.714 13.757 1.761 18.939 3.547 3.726-.183 7.35 3.223 11.17 1.151 7.354-1.98-14.382-2.938-8.684-6.452-6.73 1.958-11.7-2.335-15.012-6.645-7.548-1.743-16.276-5.602-20.043-12.282-1.536-2.508 2.22.353-1.326-3.747-4.548-4.045-6.82-8.637-9.872-13.555-3.648-1.946-4.073-7.673-4.442-.192.03-4.721-4.404-7.9-5.485-6.578-.02-4.548 4.743-2.268 1.409-5.633-.718-4.713-3.08-9.624-3.791-14.945-1.104-2.565-.156-8.059-3.767-2.252-1.315 6.137-.436-7.541 1.61-3.03 2.685-4.603-.965-4.062-1.114-3.423 1.75-3.883 1.107-9.392-.457-7.29.933-4.116 1.473-15.148-1.395-13.193 1.739-4.304 3.297-19.694-4.25-13.826-3.058.043-8.354 1.11-10.857 2.355 7.85 4.327-.79 1.563-3.985.875-.416 4.004-3.581 2.272-7.535 2.311 6.315.782-3.075 6.46-6.698 4.254-4.705 2.249 4.06 7.862.094 9.597.487 2.617-7.208-.944-6.604 5.098-4.568-1.921-.629 7.168 1.656 4.094 7.77 2.103 5.47 6.896 5.667 11.45-1.265 2.653-6.25-6.237-1.11-5.825-4.054-6.587-4.485-2.381-7.854.679-.784.222 8.594 4.354 2.709 6.397 5.178.799 5.325 5.33 6.38 8.197 3.111 3.241 2.475-3.58 6.198.316-2.356-3.47-12.481-9.778-4.33-7.755-.043-3.493-1.474-6.31 1.024-6.241 2.473-4.48-2.59 11.044 2.985 5.35 1.543-.673 1.925-4.484 4.7.36 4.028 3.964 1.455 6.837-4.229 3.207 1.017 3.45 7.603 4.682 6.365 10.077 1.313 4.744 3.148 2.997 4.748 2.722 1.256 4.61 1.968 1.22 2.028-.973 5.747 1.23 4.401 4.628 6.2 7.001 3.96 1.788-5.67-12.117 1.13-4.18 7.154 6.458 2.683 9.154-3.737 8.12 4.063-.33 5.374 5.492 10.456 5.288 4.635 2.204 7.772 10.673-.216 7.147-2.77-2.498-12.576-5.58-4.567-.828 7.396 3.425 13.27 5.475 20.404 9.774 5.106 3.645 7.311 7.82 9.246 8.645-4.29 2.05-12.93-1.636-6.515-2.766-4.001-.729-8.502-2.752-4.67 2.234 3.26 2.72 11.548 2.433 13.034 2.74-1.26 2.776-3.421 2.996.051 3.212-3.874 2.064 1.242 2.384 1.601 3.563zm-7.921-22.37c-2.357-2.464-2.966-7.081-.419-3.064 1.307.525 4.186 7.544.419 3.064zm25.797 16.387c1.47-.095.043 1.117 0 0zm-29.519-22.43c-.09-3.726.853 2.874 0 0zm-2.563-3.45c-2.965-5.728 3.737 1.622 0 0zM49.562 98.172c1.741-.464.857 2.979 0 0zm24.728 13.404c1.07-4.017 1.257 3.37 0 0zM56.82 99.428c-1.231-2.216 2.576 2.079 0 0zm14.993 4.807c-2.808-6.293 1.988-3.437.621 1.03zM45.958 86.992c-1.256-2.065-3.333-8.122-2.664-9.97.605 3.01 6.404 12.959 2.845 4.12-3.934-7.409 4.701 2.405 5.59 4.253.413 1.839-2.427-.502-.503 3.808-3.51-4.907-2.072 2.711-5.268-2.211zm-7.99-5.506c.328-4.8 1.829 3.291 0 0zm3.594 1.237c1.715-3.623 2.908 5.05 0 0zm-8.647-6.689c-2.975-2.956-5.127-5.68.14-1.834 2.03.079-4.51-6.197.488-1.993 5.256.958 2.595 8.616-.628 3.827zm4.542-.118c1.728-1.712.917 1.685 0 0zm2.795.896c-2.62-4.91 3.178 2.058 0 0zm-5.556-5.31c-8.648-7.696 10.868 4.025 1.413 1.427l-1.413-1.426zM59.476 85.9c-3.743-2.244-.992-15.798.284-6.528 3.638-1.177-.201 4.787 2.513 4.732-.428 3.763-1.642 5.116-2.798 1.796zm9.165 5.417c.367-4.085.772 2.792 0 0zm-1.592-1.573c.412-1.745.042 2.054 0 0zm-30.656-20.77c-5.556-7.666 16.147 7.754 3.558 1.944-1.315-.344-2.898-.467-3.558-1.945zm17.649 9.357c-.526-6.455 1.174 1.07 0 0zm13.4 8.596c1.037-3.677.077 2.432 0 0zm-30.198-20.88c3.302-.705 13.685 5.8 4.15 1.86-1.06-1.174-3.318-.64-4.15-1.86zM65.6 80.182c.353-6.6 1.971-3.942.012.945l-.012-.945zm-25.899-16.43c1.345-1.973-3.572-8.923.709-2.493 1.85 1.47 5.355 2.462 2.26 3.08 4.868 4.295-1.187 1.164-2.969-.587zM64.198 78.12c.93-7.518.82 4.405 0 0zM36.892 56.807c1.028-.44.543 1.37 0 0zm6.39 3.803c1.644-3.45 3.033 3.848 0 0zm18.023 10.026c-.017-1.325.34 1.928 0 0zm-1.044-2.311c-2.502-6.172 2.327 3.268 0 0zm-1.536-4.046c-.42-2.55 1.427 3.204 0 0zm2.5-4.064c-1.717-3.025 2.168-13.33 2.601-6.94-1.812 4.981-.523 7.767.741 1.087 2.335-5.257-.504 10.374-3.342 5.853zm2.569-15.327c.748-.918.166 1.108 0 0zm-4.29 84.535c-1.018-.888.128.565 0 0zm8.837 4.47c4.916 1.262 4.891-.765.448-1.366-2.39-2.224-9.93-4.582-3.18-.276.446 1.132 1.859 1.106 2.732 1.642zM50.887 122.3c2.709 2.02 10.201 5.724 3.858.77 2.139-2.486-4.093-3.808-2.026-5.47-5.258-3.218-4.148-2.932-.464-2.83-6.32-2.825.912-2.614.572-4.061-2.437-.481-12.103-4.297-6.416.313-5.781-2.947-1.378 1.098-3.125.67-5.912-1.611 5.264 4.503-.94 2.985 3.392 2.688 9.13 6.884 1.435 2.844-1.014 1.46 5.506 3.672 7.106 4.78zm9.243 5.31c11.24 3.622-5.51-4.424 0 0zm47.317 28.665c.145-2.23-1.536 1.902 0 0zm4.863 2.047c2.593-2.513.106 4.002 4.297-.615.045-3.306-.13-5.258-4.816-1.243-1.292.716-1.869 3.763.52 1.858zM35.112 109.84c-.797-3.13-5.582-3.115 0 0zm5.193 3.402c-1.929-3.197-6.88-2.894 0 0zm29.543 17.817c2.884 2.562 13.248 1.88 3.503.316-1.443-2.134-9.164-1.62-3.503-.316zm40.612 25.082c4.44-3.725-4.3 1.662 0 0zm9.233 6.345c.028-1.196-1.913.523 0 0zm.014-1.674c4.916-5.209-4.763.308 0 0zM22.34 99.147c-4.19-5.979-2.605-8.666-6.645-13.547-.765-3.733-6.932-12.204-3.19-3.23 3.428 5.249 4.446 13.375 9.835 16.777zm95.826 60.01c9.045-5.846-3.712-2.547 0 0zm6.904 2.704c4.53-3.889-2.864-.813 0 0zm-91.497-58.63c1.296-1.928-3.347-.246 0 0zm90.056 56.783c4.385-2.827-1.01-2.393-.795.26l.795-.26zm-59.514-37.512c-.15-1.909-2.316.163 0 0zm3.678 2.117c-1.169-2.363-1.797.371 0 0zm62.872 37.306c5.619-4.053-3.405-.776-1.179.768zm-2.15-1.04c4.576-3.835-4.833 1.7 0 0zm10.99 7.32c3.074-2.058-3.732-.666 0 0zM36.39 101.841c4.12.923 16.46 10.144 9.18.638-3.73-1.104-1.493-10.22-5.296-8.606 2.553 4.265 2.1 6.08-3.26 3.391-6.737-3.288-3.786 1.63-2.47 2.985-1.793.408 2.374 1.558 1.846 1.592zM17.625 87.02c.737-3.05-6.79-16.78-3.555-6.88 1.168 2.074 1.05 6.004 3.555 6.88zm34.443 21.235c-2.121-1.774-.1-.251 0 0zm5.223 1.215c-.003-3.23-5.773-1.312 0 0zm45.261 28.534c-.863-2.208-3.412-.052 0 0zm2.174 1.587c-.32-1.235-1.254.239 0 0zm17.94 11.3c1.726-1.274-2.153-.163 0 0zM26.998 89.414c4.935-1.911-5.287-1.363 0 0zm71.57 45.09c-.055-3.196-3.146.792 0 0zM25.048 84.87c3.17-1.071-2.932-.705 0 0zm9.202 4.457c-.058-1.05-.973.398 0 0zm112.23 68.823c4.077-.827 13.366 2.075 14.868-1.08-4.95-.121-17.128-3.494-17.704.804l1.084.17 1.752.106zM37.174 90.064c.071-3.237-2.524-.12 0 0zM12.981 73.282c-1.099-6.169-4.179-.934 0 0zm5.77 1.45c.07-1.98-5.281-1.782 0 0zm3.296 1.62c-.953-.773-.746.974 0 0zm20.745 13.307c.977-.897-2.312-.665 0 0zm-22.94-16.96c-.558-4.659-6.683-.698 0 0zM8.023 65.025c-.169-2.15-1.153.81 0 0zm1.759-1.329c-.287-2.55-1.51.325 0 0zm9.72 5.803c4.111-1.615-7.486-3.34-.84-.305zM149.6 149.858c2.631-2.412-3.343-.746 0 0zm15.717 8.147c1.054-3.119-2.654.41 0 0zM20.498 64.404c.432-3.017-3.26.599 0 0zM6.666 55.137c-.743-4.259-.641-11.735 6.465-9.208-9.486 1.883 6.565 11.79 4.538 3.968 3.989.195 7.803-2.357 5.71 1.517 7.859-.868 13.307-7.683 20.898-6.728 5.913-.783 12.378-1.376 18.75-3.756 5.24-.378 10.283-6.018 7.411-9.362-7.145-.604-14.623.29-22.52 1.86-8.75 1.818-16.7 5.275-25.528 6.758-8.606 1.156 1.73 3.185-.734 3.637-4.491 1.559 5.355 2.61-.583 4.252-3.667-.697-7.483-1.957-5.917-5.822-8.244 1.07-15.488 4.491-8.975 12.88l.485.004zM26.53 45.021c1.933-7.12 10.355 5.859 3.168.945-.858-.642-2.27-1.166-3.168-.945zm.376-3.453c2.79-2.078 1.483 1.166 0 0zm3.542.057c.252-3.277 8.11 1.734 1.296 1.18zm4.846-1.949c1.77-2.067.508 1.84 0 0zm1.24-.83c2.946-3.54 16.685-2.26 6.628-.345-2.695-2.03-4.761 1.197-6.629.345zm17.93-2.764c-.449-9.67 8.907 3.437 0 0zm5.087-.027c1.86-4.874 7.218-1.956.86-.98.139.519-.186 2.516-.86.98zm-41.06 25.847c5.558-3.403-5.9-2.953 0 0zm4.11 1.142c1.948-2.072-4.235-.84 0 0zM10.492 54.45c3.175-2.44-3.758-.928 0 0zm164.102 102.662c.092-2.83-2.427 1.276 0 0zm-16.675-11.38c.474-3.258-2.143.285 0 0zm21.26 12.478c4.44.015 13.453-1.38 3.792-1.375-1.515.237-8.833.186-3.792 1.375zM26.215 61.047c3.593-.247 5.622-3.964-.695-3.75-9.79-1.014 8.637 3.352-1.256 2.103-1.33.88 1.874 1.89 1.95 1.647zm3.164 1.601c-.375-2.307-1.11 1.226 0 0zm3.754-10.01c1.56-1.934-2.157-.517 0 0zm-11.95-19.975c6.413-2.182 15.183-4.633 18.21 1.074-3.081-3.709-1.243-7.36 1.667-1.937 4.116 5.487 6.176-2.496 3.5-4.336 3.05 3.79 6.52 5.581 2.042.24 4.866-5.853-9.743.766-13.063.7-1.598.716-16.494 3.798-12.356 4.26zm3.759-7.198c3.657-2.76 12.648 1.642 6.879-2.743-.565-.498-12.636 3.325-6.88 2.743zm13.333.55c4.28.11-1.846-5.75 3.254-3.094-.837-2.737-5.938-3.25-8.432-4.343-1.41 2.502 2.871 7.471 5.178 7.438zM27.279 13.913c1.481-2.007-2.595 1.018 0 0zm5.45 1.305c6.898-.915-1.758-2.97-1.39-.074l1.39.074zM22.554 7.255c-4.857-6.34 9.134 1.065 4.199-5.573-4.153-3.307-8.144 3.722-4.2 5.573zm62.33 33.572c2.227-3.949-9.197-5.323-1.501-1.4.708.238.548 1.673 1.5 1.4z"/><path style="-inkscape-font-specification:'High Tower Text'" d="M190.031 13.591c-.797 3.14-1.29 8.414-1.477 15.82 0 1.454-.656 2.18-1.968 2.18-1.313 0-2.227-.633-2.742-1.898-1.407-3.422-2.743-5.813-4.008-7.172-1.5-1.594-3.493-2.555-5.977-2.883-2.672-.422-9.328-.633-19.969-.633-2.437 0-4.03.258-4.78.774-.47.328-.704 1.031-.704 2.109V53.74c0 1.078.68 1.593 2.04 1.546 4.17-.046 10.218-.328 18.14-.843 1.547-.188 2.59-.692 3.129-1.512.539-.82 1.066-2.941 1.582-6.363.328-1.875 1.43-2.602 3.304-2.18 1.594.328 2.274 1.055 2.04 2.18-1.313 6.375-1.735 14.672-1.266 24.89.047 1.22-.727 1.875-2.32 1.97-1.313.14-2.133-.563-2.461-2.11-1.22-5.86-3.481-8.989-6.786-9.387-3.304-.398-8.683-.598-16.136-.598-.844 0-1.266.305-1.266.914v31.641c0 2.344.867 3.938 2.602 4.781 1.359.703 4.289 1.336 8.789 1.899 2.296.234 3.304 1.242 3.023 3.023-.281 1.547-2.344 2.156-6.187 1.828-11.11-.89-20.274-.843-27.493.14-2.015.282-3.023-.538-3.023-2.46 0-1.219 1.008-1.922 3.023-2.11 4.594-.515 6.891-4.546 6.891-12.093V28.708c0-3.093-.55-5.472-1.652-7.136-1.102-1.664-3.153-3.176-6.153-4.536-1.875-.843-2.578-1.992-2.109-3.445.234-.89.61-1.383 1.125-1.476.469-.14 1.71-.047 3.727.28 2.953.47 9.914.704 20.882.704 12.938 0 24.117-.281 33.54-.844 3.14-.187 4.71.07 4.71.774 0 .187-.023.375-.07.562zm45.703 89.367c0 1.875-1.055 2.696-3.164 2.461-6.469-.61-14.484-.515-24.047.282-1.922.187-3.105.14-3.55-.141-.446-.281-.669-1.055-.669-2.32 0-1.125 1.278-2.075 3.832-2.848 2.555-.773 3.833-3.082 3.833-6.926V29.833c0-3.796-.551-6.586-1.653-8.367-1.101-1.781-3.035-3.164-5.8-4.148-1.454-.516-2.18-1.242-2.18-2.18 0-1.406 1.054-2.46 3.164-3.164 3.187-1.031 6.492-2.625 9.914-4.781 2.812-1.688 4.594-2.531 5.344-2.532 1.734 0 2.601 1.196 2.601 3.586 0-.187-.094 2.157-.281 7.032-.14 4.64-.188 9.21-.14 13.71l.28 62.79c0 2.86.704 4.933 2.11 6.222 1.406 1.29 3.82 2.145 7.242 2.567 2.11.234 3.164 1.031 3.164 2.39zm64.126-4.711c0 .985-1.794 2.473-5.38 4.465s-6.457 2.989-8.613 2.989c-1.828 0-3.445-.891-4.852-2.672-1.406-1.782-2.39-2.672-2.953-2.672-.422 0-2.648.96-6.68 2.883-4.03 1.921-8.085 2.882-12.163 2.882-3.844 0-7.055-1.125-9.633-3.375-2.813-2.484-4.22-5.859-4.219-10.125 0-8.109 9.281-13.921 27.844-17.437 3.187-.61 4.804-1.898 4.851-3.867l.14-4.5c.282-7.688-3.116-11.531-10.194-11.532-2.016 0-3.926 1.805-5.73 5.415-1.806 3.609-4.395 5.554-7.77 5.835-3.844.376-5.766-1.242-5.766-4.851 0-2.25 2.86-4.875 8.578-7.875 6-3.14 11.766-4.711 17.297-4.711 9.516 0 14.226 4.523 14.133 13.57l-.281 28.969c-.047 3.047 1.242 4.57 3.867 4.57.515 0 1.5-.117 2.953-.351 1.453-.235 2.297-.352 2.531-.352 1.36 0 2.04.914 2.04 2.742zm-21.657-16.03c.047-1.173-.223-1.946-.809-2.321-.586-.375-1.511-.445-2.777-.211-11.297 2.016-16.945 5.695-16.945 11.039 0 5.39 2.93 8.086 8.789 8.086 2.343 0 4.757-.445 7.242-1.336 2.906-1.031 4.36-2.273 4.36-3.727zm74.109 7.663c0 4.969-1.91 8.918-5.73 11.848-3.82 2.93-9.035 4.394-15.645 4.394-4.406 0-8.812-.468-13.218-1.406-3.797-.844-6-1.617-6.61-2.32-.375-.656-.562-3.867-.562-9.633 0-2.484.562-3.773 1.687-3.867 1.125-.14 2.086.469 2.883 1.828 3.516 6.14 9.187 9.21 17.016 9.21 6.609 0 9.914-2.296 9.914-6.89 0-2.015-.75-3.703-2.25-5.062-1.641-1.547-4.829-3.352-9.563-5.414-6.844-3.047-11.414-5.719-13.71-8.016-2.485-2.437-3.727-5.719-3.727-9.844 0-5.062 1.945-9 5.836-11.812 3.609-2.719 8.437-4.078 14.484-4.078 3.797 0 7.266.304 10.406.914 3.375.61 5.133 1.36 5.274 2.25.375 2.625 1.148 6.422 2.32 11.39.14.61-.516 1.102-1.969 1.477-1.547.328-2.578.07-3.094-.773-3.703-6.047-8.39-9.07-14.062-9.07-6.422 0-9.633 2.062-9.633 6.187 0 2.297.867 4.125 2.602 5.484 1.547 1.172 5.18 3 10.898 5.484 6 2.579 10.078 4.899 12.235 6.961 2.812 2.672 4.218 6.258 4.218 10.758zm81.563 12.656c0 1.641-1.102 2.508-3.305 2.602-3.281.047-7.57.281-12.867.703-2.625.516-4.5.188-5.625-.984-7.406-7.969-13.688-16.313-18.844-25.031-.422-.75-.96-1.125-1.617-1.125-.797 0-2.18.703-4.148 2.109-2.204 1.219-3.305 2.953-3.305 5.203 0 1.594.047 3.89.14 6.89.094 3 .844 4.97 2.25 5.907.985.656 3.258 1.172 6.82 1.547 2.204.281 3.305 1.101 3.305 2.46 0 1.079-.175 1.747-.527 2.005-.351.257-1.277.316-2.777.175-4.688-.421-12.61-.187-23.766.704-2.812.234-4.336-.118-4.57-1.055-.094-.328-.14-.797-.14-1.406 0-1.454 1.429-2.555 4.288-3.305 2.578-.656 3.867-3.68 3.867-9.07V29.41c0-3.843-.375-6.515-1.125-8.015-1.03-1.922-3.187-3.422-6.468-4.5-1.547-.516-2.32-1.242-2.32-2.18 0-1.36 1.1-2.414 3.304-3.164a44.143 44.143 0 0010.055-4.85c2.578-1.688 4.172-2.532 4.781-2.532 1.922 0 2.883 1.22 2.883 3.657 0-.328-.024 1.992-.07 6.96-.047 3.422-.07 8.016-.07 13.782l.14 44.015c0 1.22.328 1.829.984 1.828.703 0 1.781-.609 3.235-1.828 3.89-3.046 8.671-7.03 14.343-11.953 1.125-1.172 1.688-2.11 1.688-2.812 0-1.266-1.899-2.156-5.695-2.672-1.641-.188-2.415-1.102-2.32-2.742.14-1.64.96-2.344 2.46-2.11 3.375.47 8.297.727 14.766.774 4.5.047 8.976.07 13.43.07 1.453.047 2.18.914 2.18 2.602 0 1.593-1.15 2.46-3.446 2.601-3.61.14-7.008.961-10.195 2.461-4.454 2.016-9.211 5.555-14.274 10.617-.375.282-.562.633-.562 1.055 0 .656.796 2.227 2.39 4.71 5.86 8.907 11.39 15.634 16.594 20.18 3.328 2.86 6.445 4.29 9.352 4.29 2.156 0 3.492.152 4.007.457.516.304.774 1.113.774 2.425z" font-weight="400" font-size="144" font-family="High Tower Text"/><g style="line-height:90%"><path style="line-height:90%;-inkscape-font-specification:'High Tower Text';text-align:end" d="M245.36 127.043c0 .164-.315.332-.944.506-.41.109-.756.483-1.039 1.12-1.64 3.647-3.108 6.586-4.402 8.819-.027.055-.096.078-.205.068-.1-.009-.169-.04-.205-.095-.219-.328-.78-1.472-1.682-3.432-.83-1.805-1.276-2.707-1.34-2.707-.1 0-.588.87-1.463 2.611-.993 1.942-1.581 3.05-1.763 3.323-.028.063-.091.09-.192.082a.274.274 0 01-.232-.11c-.665-1.039-2.197-3.883-4.594-8.531-.273-.547-.579-.893-.916-1.039-.583-.255-.875-.442-.875-.56 0-.356.196-.516.588-.48 1.76.183 3.3.147 4.621-.108.3-.055.451.045.451.3 0 .356-.205.584-.615.684-.538.128-.807.328-.807.601 0 .174.064.429.192.766.328.848.82 1.923 1.476 3.227.657 1.303 1.04 1.955 1.149 1.955.073 0 .46-.68 1.162-2.037.702-1.358 1.053-2.11 1.053-2.256 0-.356-.119-.738-.356-1.149-.282-.601-.61-.961-.984-1.08-.602-.21-.903-.414-.903-.615 0-.365.206-.515.616-.451 1.403.191 2.889.155 4.457-.11.3-.054.45.037.45.274 0 .346-.222.56-.669.642-.529.1-.793.37-.793.807 0 .21.06.456.178.738 1.403 3.437 2.215 5.155 2.433 5.155.082 0 .447-.67 1.094-2.01.693-1.431 1.176-2.584 1.45-3.459a.402.402 0 00.027-.15c0-.392-.306-.698-.916-.916-.474-.155-.711-.329-.711-.52 0-.319.15-.442.45-.37.411.092 1.15.16 2.216.206 1.002.036 1.663.032 1.982-.014.374-.045.56.06.56.315zm12.113 7.752c0 .392-.529.88-1.586 1.463-1.203.647-2.438.97-3.705.97-1.376 0-2.534-.45-3.473-1.353-1.002-.957-1.504-2.233-1.504-3.828 0-1.805.56-3.254 1.682-4.348 1.048-1.02 2.333-1.531 3.855-1.531.903 0 1.746.287 2.53.861.702.51 1.166 1.094 1.394 1.75.082.228.205.356.37.383.236.045.355.205.355.478 0 .374-.447.693-1.34.957l-6.303 1.873c.41 2.17 1.522 3.254 3.336 3.254 1.048 0 2.242-.382 3.582-1.148.2-.119.397-.178.588-.178.146 0 .219.132.219.397zm-3.24-5.483c0-.501-.203-.94-.609-1.32-.405-.377-.904-.566-1.497-.566-1.677 0-2.515 1.207-2.515 3.623v.328l3.718-1.121c.602-.174.903-.488.903-.944zm17.062 1.641c0 1.805-.629 3.318-1.886 4.539-1.204 1.176-2.635 1.764-4.293 1.764-.94 0-1.92-.155-2.94-.465-.984-.301-1.481-.574-1.49-.82-.01-.21-.005-.944.014-2.202.027-1.54.04-2.661.04-3.363 0-1.057-.008-2.59-.027-4.6-.018-2.01-.027-3.343-.027-4 0-.656-.1-1.107-.3-1.353-.183-.219-.58-.392-1.19-.52-.237-.082-.356-.232-.356-.45 0-.192.178-.352.533-.48.51-.182 1.144-.487 1.9-.915.602-.338.976-.506 1.122-.506.282 0 .424.232.424.697 0 .037-.014.51-.041 1.422a82.83 82.83 0 00-.014 2.611l.027 4.73c0 .447.155.575.465.384 1.094-.63 2.233-.944 3.418-.944 1.367 0 2.48.413 3.336 1.237.857.825 1.285 1.903 1.285 3.234zm-2.187 1.217c0-1.249-.347-2.274-1.04-3.076-.656-.757-1.453-1.135-2.392-1.135-.647 0-1.285.168-1.914.506-.629.337-.943.692-.943 1.066v3.664c0 1.76.97 2.639 2.912 2.639 1.011 0 1.827-.326 2.447-.978.62-.651.93-1.547.93-2.686zm24.308 3.582a.515.515 0 01.055.177c0 .192-.465.506-1.395.944-1.075.501-1.709.752-1.9.752-.164 0-.353-.276-.567-.827-.214-.552-.363-.828-.445-.828.01 0-.508.24-1.551.718-1.044.479-1.835.718-2.372.718-1.204 0-2.247-.433-3.131-1.299-1.067-1.03-1.6-2.474-1.6-4.334 0-1.558.629-2.903 1.887-4.033 1.112-.993 2.247-1.49 3.404-1.49.82 0 1.8.105 2.94.314.355.064.533-.04.533-.314v-4.676c0-.529-.128-.902-.383-1.121-.164-.146-.552-.32-1.162-.52-.292-.109-.438-.287-.438-.533 0-.228.196-.396.588-.506.538-.164 1.18-.437 1.928-.82.62-.328 1.003-.492 1.148-.492.338 0 .506.232.506.697l-.04 1.36a89.441 89.441 0 00-.042 2.673v12.428c0 .52.233.78.698.78.173 0 .405-.028.697-.083.319-.054.533.05.642.315zm-4.224-1.354v-4.894c0-.401-.356-.816-1.067-1.244a4.684 4.684 0 00-2.46-.684c-1.906 0-2.858 1.176-2.858 3.527 0 1.258.378 2.334 1.135 3.227.756.893 1.645 1.34 2.666 1.34.465 0 1.011-.155 1.64-.465.63-.31.944-.579.944-.807zm16.078.397c0 .392-.529.88-1.586 1.463-1.203.647-2.438.97-3.705.97-1.376 0-2.534-.45-3.473-1.353-1.002-.957-1.504-2.233-1.504-3.828 0-1.805.56-3.254 1.682-4.348 1.048-1.02 2.333-1.531 3.855-1.531.903 0 1.746.287 2.53.861.701.51 1.166 1.094 1.394 1.75.082.228.205.356.37.383.236.045.355.205.355.478 0 .374-.447.693-1.34.957l-6.303 1.873c.41 2.17 1.522 3.254 3.336 3.254 1.048 0 2.242-.382 3.582-1.148.2-.119.397-.178.588-.178.146 0 .219.132.219.397zm-3.24-5.483c0-.501-.203-.94-.609-1.32-.405-.377-.904-.566-1.497-.566-1.677 0-2.515 1.207-2.515 3.623v.328l3.718-1.121c.602-.174.903-.488.903-.944zm18.238-2.297c0 .174-.287.351-.861.534-.374.109-.693.483-.957 1.12-.447 1.076-1.226 2.653-2.338 4.731-.94 1.76-1.664 3.044-2.174 3.856-.028.063-.087.09-.178.082a.27.27 0 01-.205-.11 59.7 59.7 0 01-4.963-8.531c-.292-.62-.579-.966-.861-1.04-.529-.209-.793-.396-.793-.56 0-.364.178-.524.533-.478.556.073 1.38.091 2.475.055 1.057-.028 1.8-.082 2.228-.164.264-.055.397.045.397.3 0 .32-.187.524-.56.616-.712.19-1.067.437-1.067.738 0 .137.045.332.136.588.31.765.866 1.87 1.668 3.315.802 1.445 1.258 2.167 1.368 2.167.082 0 .469-.693 1.162-2.078.729-1.467 1.253-2.652 1.572-3.555.046-.1.068-.2.068-.3 0-.356-.218-.648-.656-.875-.428-.174-.643-.338-.643-.493 0-.319.142-.45.424-.396.365.064 1.007.118 1.928.164.92.046 1.518.055 1.791.027.337-.063.506.032.506.287zm12.127 7.78c0 .392-.529.88-1.586 1.463-1.203.647-2.438.97-3.705.97-1.376 0-2.534-.45-3.473-1.353-1.002-.957-1.504-2.233-1.504-3.828 0-1.805.56-3.254 1.682-4.348 1.048-1.02 2.333-1.531 3.855-1.531.903 0 1.746.287 2.53.861.701.51 1.166 1.094 1.394 1.75.082.228.205.356.37.383.236.045.355.205.355.478 0 .374-.447.693-1.34.957l-6.303 1.873c.41 2.17 1.522 3.254 3.336 3.254 1.048 0 2.242-.382 3.582-1.148.2-.119.397-.178.588-.178.146 0 .219.132.219.397zm-3.24-5.483c0-.501-.203-.94-.609-1.32-.405-.377-.904-.566-1.497-.566-1.677 0-2.515 1.207-2.515 3.623v.328l3.718-1.121c.602-.174.903-.488.903-.944zm11.689 7.383c0 .365-.205.524-.615.479-1.258-.119-2.817-.1-4.676.054-.374.037-.604.028-.69-.027-.087-.055-.13-.205-.13-.451 0-.219.248-.404.745-.554.497-.15.745-.6.745-1.347v-12.373c0-.738-.107-1.28-.321-1.627-.215-.346-.59-.615-1.128-.806-.283-.1-.424-.242-.424-.424 0-.274.205-.479.615-.615.62-.2 1.263-.51 1.928-.93.547-.328.893-.492 1.039-.492.337 0 .506.232.506.697 0-.036-.018.42-.055 1.367-.027.903-.036 1.791-.027 2.666l.055 12.21c0 .555.136.959.41 1.21.273.25.742.416 1.408.498.41.046.615.2.615.465zm13.248-5.113c0 1.586-.588 2.928-1.764 4.026-1.175 1.098-2.634 1.648-4.375 1.648-1.74 0-3.117-.483-4.128-1.45-.976-.948-1.463-2.2-1.463-3.76 0-1.613.615-2.97 1.845-4.074 1.194-1.066 2.62-1.6 4.28-1.6 1.777 0 3.162.48 4.156 1.436.966.93 1.45 2.188 1.45 3.774zm-2.406.834c0-1.431-.347-2.593-1.04-3.487-.674-.865-1.53-1.298-2.57-1.298-.966 0-1.754.34-2.365 1.018-.61.68-.916 1.506-.916 2.482 0 1.567.356 2.789 1.067 3.664.656.802 1.513 1.203 2.57 1.203 1.003 0 1.796-.333 2.379-.998.583-.666.875-1.527.875-2.584zm16.694-1.203c0 1.704-.573 3.151-1.717 4.34-1.144 1.19-2.477 1.785-3.999 1.785-.92 0-1.809-.164-2.666-.493-.09-.036-.136.187-.136.67v4.116c0 .665.542 1.093 1.627 1.285.5.09.818.175.95.253.132.077.198.207.198.39 0 .31-.205.45-.615.423-1.914-.127-3.596-.082-5.045.137-.3.046-.488.046-.56 0-.074-.046-.11-.169-.11-.37 0-.154.26-.341.78-.56.446-.182.67-.62.67-1.312v-12.059c0-.975-.27-1.586-.807-1.832-.639-.282-.958-.515-.958-.697 0-.2.187-.351.561-.451.483-.119.98-.328 1.49-.63.429-.245.688-.368.78-.368.273 0 .496.25.67.752.255.729.423 1.093.505 1.093.019 0 .41-.214 1.176-.642.839-.465 1.659-.698 2.461-.698 1.303 0 2.379.37 3.227 1.108 1.011.866 1.517 2.119 1.517 3.76zm-2.325 1.093c0-1.485-.37-2.643-1.107-3.472-.602-.693-1.308-1.04-2.12-1.04-.628 0-1.23.22-1.804.657-.757.565-1.135 1.353-1.135 2.365v3.87c0 .245.346.505 1.039.779.747.3 1.559.45 2.434.45 1.795 0 2.693-1.202 2.693-3.609zm27.029 4.416c0 .301-.141.442-.424.424-1.859-.136-3.59-.136-5.195 0-.355.028-.533-.132-.533-.478 0-.274.241-.42.725-.438.61-.036.916-.533.916-1.49v-3.637c0-2.041-.83-3.062-2.489-3.062-.875 0-1.677.16-2.406.478-.665.283-1.003.565-1.012.848l-.054 5.428c0 .565.068.938.205 1.12.1.128.323.22.67.274.802.137 1.203.306 1.203.506 0 .173-.023.292-.069.356-.054.09-.218.132-.492.123-1.039-.037-2.552-.019-4.539.054-.282.01-.465-.013-.547-.068-.082-.055-.123-.182-.123-.383 0-.237.26-.383.78-.437.565-.064.847-.58.847-1.545v-3.72c0-1.002-.228-1.776-.683-2.323-.402-.492-.912-.739-1.532-.739-.911 0-1.731.185-2.46.554-.73.37-1.094.763-1.094 1.183v4.99c0 .565.145.957.437 1.176.264.2.743.323 1.436.369.373.018.56.146.56.383 0 .264-.15.396-.451.396-2.279 0-3.928.064-4.95.192-.346.045-.569.045-.67 0-.081-.046-.122-.155-.122-.329 0-.227.337-.423 1.012-.587.41-.11.615-.643.615-1.6v-4.197c0-1.067-.287-1.682-.862-1.846-.483-.137-.777-.237-.881-.3-.105-.065-.158-.17-.158-.315 0-.164.474-.51 1.422-1.04 1.003-.564 1.618-.847 1.846-.847.191 0 .353.276.485.827.132.552.235.827.308.827.1 0 .378-.14.834-.423.565-.356 1.075-.62 1.531-.793a6.303 6.303 0 012.31-.438c.639 0 1.195.137 1.669.41.328.183.624.433.888.752l.328.41.711-.41a9.517 9.517 0 011.627-.752 6.76 6.76 0 012.256-.41c2.498 0 3.746 1.372 3.746 4.115v4.43c0 .52.123.889.37 1.107.218.183.647.338 1.285.465.483.091.724.228.724.41zm11.553-1.927c0 .392-.529.88-1.586 1.463-1.203.647-2.438.97-3.705.97-1.376 0-2.534-.45-3.473-1.353-1.002-.957-1.504-2.233-1.504-3.828 0-1.805.561-3.254 1.682-4.348 1.048-1.02 2.333-1.531 3.856-1.531.902 0 1.745.287 2.529.861.702.51 1.167 1.094 1.394 1.75.082.228.205.356.37.383.236.045.355.205.355.478 0 .374-.447.693-1.34.957l-6.303 1.873c.41 2.17 1.523 3.254 3.336 3.254 1.049 0 2.243-.382 3.582-1.148.2-.119.397-.178.588-.178.146 0 .219.132.219.397zm-3.24-5.483c0-.501-.203-.94-.609-1.32-.405-.377-.904-.566-1.497-.566-1.677 0-2.515 1.207-2.515 3.623v.328l3.718-1.121c.602-.174.903-.488.903-.944zm19.646 7.533c0 .283-.205.41-.615.383-1.96-.1-3.445-.118-4.457-.054-.52.036-.802-.028-.848-.192a.77.77 0 01-.027-.232c0-.183.264-.347.793-.492.483-.137.725-.607.725-1.409v-3.636c0-2.088-.907-3.131-2.721-3.131-.811 0-1.563.191-2.256.574-.656.374-.984.761-.984 1.162v5.004c0 .857.56 1.335 1.681 1.436.429.036.643.173.643.41 0 .228-.06.364-.178.41-.055.018-.21.023-.465.014a26.22 26.22 0 00-4.43.218c-.327.046-.533.06-.615.041-.182-.036-.273-.177-.273-.423 0-.22.26-.406.78-.561.482-.146.724-.752.724-1.818v-4.143c0-.702-.091-1.148-.274-1.34-.127-.137-.551-.328-1.271-.574-.182-.064-.273-.191-.273-.383 0-.182.186-.342.56-.478.51-.192 1.071-.497 1.682-.916.51-.347.838-.52.984-.52.246 0 .41.28.492.84.082.561.196.842.342.842-.073 0 .392-.267 1.395-.8 1.002-.533 1.991-.8 2.966-.8 2.361 0 3.55 1.345 3.569 4.033l.027 4.403c0 .565.146.97.438 1.216.218.183.642.338 1.271.465.41.082.615.233.615.451zm8.777-1.039c0 .438-.4.812-1.203 1.121-.71.274-1.43.41-2.16.41-1.978 0-2.966-1.052-2.966-3.158v-4.949c0-.629-.05-1.014-.15-1.155-.101-.141-.434-.28-.999-.417-.146-.037-.219-.178-.219-.424 0-.264.055-.424.164-.478.985-.483 1.842-1.35 2.57-2.598.101-.173.297-.228.589-.164.2.064.305.182.314.355l.055 1.71c0 .127.023.218.068.273.064.082.21.123.438.123h3.048c.174 0 .174.214 0 .642-.21.52-.519.78-.93.78h-2.064c-.355 0-.574.059-.656.177-.064.082-.096.306-.096.67v4.471c0 1.13.1 1.846.301 2.147.265.382.88.574 1.846.574.319 0 .706-.053 1.162-.157.456-.105.697-.158.725-.158.109 0 .164.069.164.205zm6.208.616c0 2.37-.998 4.151-2.994 5.345-.183.11-.315.164-.397.164-.128 0-.246-.145-.355-.437a.757.757 0 01-.055-.246c0-.155.26-.41.78-.766.892-.62 1.339-1.321 1.339-2.105 0-.401-.26-.766-.78-1.094-.728-.456-1.093-1.016-1.093-1.682 0-.446.15-.818.451-1.114.3-.296.702-.444 1.203-.444.602 0 1.069.218 1.402.656.332.437.499 1.012.499 1.723zm-196.889 20.36c0 1.586-.588 2.928-1.764 4.026-1.175 1.098-2.634 1.648-4.375 1.648-1.74 0-3.117-.483-4.129-1.45-.975-.948-1.462-2.2-1.462-3.76 0-1.613.615-2.97 1.845-4.074 1.194-1.066 2.62-1.6 4.28-1.6 1.777 0 3.162.48 4.156 1.436.966.93 1.449 2.188 1.449 3.774zm-2.406.834c0-1.431-.347-2.593-1.04-3.487-.674-.865-1.53-1.298-2.57-1.298-.966 0-1.754.34-2.365 1.018-.61.68-.916 1.506-.916 2.482 0 1.567.356 2.789 1.067 3.664.656.802 1.513 1.203 2.57 1.203 1.002 0 1.795-.333 2.379-.998.583-.666.875-1.527.875-2.584zm19.045 4.429c0 .283-.205.41-.616.383-1.96-.1-3.445-.118-4.457-.054-.52.036-.802-.028-.847-.192a.77.77 0 01-.028-.232c0-.183.265-.347.793-.492.483-.137.725-.607.725-1.409v-3.636c0-2.088-.907-3.131-2.72-3.131-.812 0-1.564.191-2.257.574-.656.374-.984.761-.984 1.162v5.004c0 .857.56 1.335 1.682 1.436.428.036.642.173.642.41 0 .228-.06.364-.178.41-.054.018-.21.023-.464.014a26.22 26.22 0 00-4.43.218c-.328.046-.533.06-.615.041-.183-.036-.274-.177-.274-.424 0-.218.26-.405.78-.56.483-.146.724-.752.724-1.818v-4.143c0-.702-.091-1.148-.273-1.34-.128-.137-.552-.328-1.272-.574-.182-.064-.273-.191-.273-.383 0-.182.187-.342.56-.478.51-.192 1.071-.497 1.682-.916.51-.347.839-.52.984-.52.246 0 .41.28.493.84.082.561.196.842.341.842-.073 0 .392-.267 1.395-.8 1.002-.533 1.991-.8 2.967-.8 2.36 0 3.55 1.345 3.568 4.033l.027 4.403c0 .565.146.97.438 1.216.219.183.642.338 1.271.465.41.082.616.233.616.451zm11.429-2.05c0 .392-.528.88-1.586 1.463-1.203.647-2.438.97-3.705.97-1.376 0-2.534-.45-3.472-1.353-1.003-.957-1.504-2.233-1.504-3.828 0-1.805.56-3.254 1.681-4.348 1.049-1.02 2.334-1.531 3.856-1.531.902 0 1.745.287 2.53.861.701.51 1.166 1.094 1.394 1.75.082.228.205.356.369.383.237.045.355.205.355.478 0 .374-.446.693-1.34.957l-6.302 1.873c.41 2.17 1.522 3.254 3.336 3.254 1.048 0 2.242-.382 3.582-1.148.2-.119.396-.178.588-.178.145 0 .218.132.218.397zm-3.24-5.483c0-.501-.203-.94-.608-1.32-.406-.377-.905-.566-1.497-.566-1.677 0-2.516 1.207-2.516 3.623v.328l3.719-1.121c.601-.174.902-.488.902-.944zm25.129 6.44a.517.517 0 01.055.177c0 .192-.465.506-1.395.944-1.075.501-1.709.752-1.9.752-.164 0-.353-.276-.568-.827-.214-.552-.362-.828-.444-.828.01 0-.508.24-1.552.718-1.043.479-1.834.718-2.372.718-1.203 0-2.247-.433-3.13-1.299-1.067-1.03-1.6-2.474-1.6-4.334 0-1.558.629-2.903 1.886-4.033 1.112-.993 2.247-1.49 3.405-1.49.82 0 1.8.105 2.94.314.355.064.532-.04.532-.314v-4.676c0-.529-.127-.902-.382-1.121-.164-.146-.552-.32-1.162-.52-.292-.109-.438-.287-.438-.533 0-.228.196-.396.588-.506.538-.164 1.18-.437 1.928-.82.62-.328 1.002-.492 1.148-.492.337 0 .506.232.506.697l-.041 1.36a89.441 89.441 0 00-.041 2.673v12.428c0 .52.232.78.697.78.173 0 .406-.028.697-.083.32-.054.534.05.643.315zm-4.225-1.354v-4.894c0-.401-.355-.816-1.066-1.244a4.684 4.684 0 00-2.46-.684c-1.906 0-2.858 1.176-2.858 3.527 0 1.258.378 2.334 1.134 3.227.757.893 1.646 1.34 2.666 1.34.465 0 1.012-.155 1.641-.465.629-.31.943-.579.943-.807zm14.547-7c0 1.103-.319 1.655-.957 1.654-.1 0-.433-.063-.998-.19-.565-.129-.98-.192-1.244-.192-1.02 0-1.531.688-1.531 2.064v4.033c0 .474.164.812.492 1.012.191.119.67.278 1.436.479.41.1.615.255.615.464 0 .247-.034.395-.103.445-.068.05-.239.061-.512.034-2.006-.21-3.592-.219-4.758-.027-.365.063-.597.063-.698 0-.082-.055-.123-.215-.123-.479 0-.246.253-.442.76-.588.505-.146.758-.583.758-1.312v-4.389c0-.574-.075-.962-.226-1.162-.15-.2-.562-.47-1.237-.807l-.082-.04c-.182-.092-.273-.22-.273-.383 0-.183.187-.338.56-.465a6.054 6.054 0 001.723-.93c.428-.337.702-.506.82-.506.328 0 .524.283.588.848.082.72.178 1.08.287 1.08.01 0 .52-.342 1.531-1.026a3.844 3.844 0 012.188-.67c.656 0 .984.351.984 1.053zm13.549 4.184c0 1.586-.588 2.928-1.764 4.026-1.175 1.098-2.634 1.648-4.375 1.648-1.74 0-3.117-.483-4.128-1.45-.976-.948-1.463-2.2-1.463-3.76 0-1.613.615-2.97 1.845-4.074 1.194-1.066 2.62-1.6 4.28-1.6 1.777 0 3.162.48 4.156 1.436.966.93 1.45 2.188 1.45 3.774zm-2.406.834c0-1.431-.347-2.593-1.04-3.487-.674-.865-1.53-1.298-2.57-1.298-.966 0-1.754.34-2.365 1.018-.61.68-.916 1.506-.916 2.482 0 1.567.356 2.789 1.067 3.664.656.802 1.513 1.203 2.57 1.203 1.003 0 1.796-.333 2.379-.998.583-.666.875-1.527.875-2.584zm16.693-1.203c0 1.704-.572 3.151-1.716 4.34-1.144 1.19-2.477 1.785-3.999 1.785-.92 0-1.809-.164-2.666-.493-.09-.036-.136.187-.136.67v4.116c0 .665.542 1.093 1.627 1.285.5.09.818.175.95.253.132.077.198.207.198.39 0 .31-.205.45-.615.423-1.914-.127-3.596-.082-5.045.137-.3.046-.488.046-.56 0-.074-.046-.11-.169-.11-.37 0-.154.26-.341.78-.56.446-.182.67-.62.67-1.312v-12.059c0-.975-.27-1.586-.807-1.832-.639-.282-.958-.515-.958-.697 0-.2.187-.351.561-.451.483-.119.98-.328 1.49-.63.429-.245.688-.368.78-.368.273 0 .496.25.67.752.255.729.423 1.093.505 1.093.019 0 .41-.214 1.176-.642.839-.465 1.659-.698 2.461-.698 1.303 0 2.379.37 3.227 1.108 1.011.866 1.517 2.119 1.517 3.76zm-2.324 1.093c0-1.485-.37-2.643-1.107-3.472-.602-.693-1.308-1.04-2.12-1.04-.628 0-1.23.22-1.804.657-.757.565-1.135 1.353-1.135 2.365v3.87c0 .245.346.505 1.039.779.747.3 1.559.45 2.434.45 1.795 0 2.693-1.202 2.693-3.609zm22.586 3.474c0 .19-.349.48-1.046.867-.697.388-1.256.581-1.675.581-.355 0-.67-.173-.943-.52-.274-.346-.465-.519-.574-.519-.082 0-.515.187-1.3.56-.783.374-1.571.561-2.364.561-.748 0-1.372-.218-1.873-.656-.547-.483-.82-1.14-.82-1.969 0-1.577 1.804-2.707 5.413-3.39.62-.119.935-.37.944-.752l.027-.875c.055-1.495-.606-2.242-1.982-2.242-.392 0-.764.35-1.115 1.052-.35.702-.854 1.08-1.51 1.135-.748.073-1.122-.241-1.122-.943 0-.438.556-.948 1.668-1.532 1.167-.61 2.288-.916 3.364-.916 1.85 0 2.766.88 2.748 2.64l-.055 5.632c-.009.592.242.889.752.889.1 0 .292-.023.574-.069a5.74 5.74 0 01.492-.068c.265 0 .397.178.397.533zm-4.211-3.118c.009-.228-.043-.378-.157-.451-.114-.073-.294-.087-.54-.041-2.197.392-3.295 1.107-3.295 2.146 0 1.048.57 1.572 1.709 1.572.456 0 .925-.086 1.408-.26.565-.2.848-.441.848-.724zm13.398 3.144c0 .438-.4.812-1.203 1.121a5.974 5.974 0 01-2.16.41c-1.978 0-2.967-1.052-2.967-3.158v-4.949c0-.629-.05-1.014-.15-1.155-.1-.141-.433-.28-.998-.417-.146-.037-.219-.178-.219-.424 0-.264.055-.424.164-.478.985-.483 1.841-1.35 2.57-2.598.1-.173.297-.228.588-.164.2.064.306.182.315.355l.055 1.71c0 .127.022.218.068.273.064.082.21.123.437.123h3.05c.172 0 .172.214 0 .642-.21.52-.52.78-.93.78h-2.065c-.355 0-.574.059-.656.177-.064.082-.096.306-.096.67v4.471c0 1.13.1 1.846.301 2.147.264.382.88.574 1.846.574.319 0 .706-.053 1.162-.157.456-.105.697-.158.724-.158.11 0 .164.069.164.205zm19.797-.026c0 .19-.348.48-1.046.867-.697.388-1.255.581-1.674.581-.356 0-.67-.173-.944-.52-.273-.346-.465-.519-.574-.519-.082 0-.515.187-1.299.56-.784.374-1.572.561-2.365.561-.747 0-1.372-.218-1.873-.656-.547-.483-.82-1.14-.82-1.969 0-1.577 1.804-2.707 5.414-3.39.62-.119.934-.37.943-.752l.027-.875c.055-1.495-.606-2.242-1.982-2.242-.392 0-.763.35-1.114 1.052-.351.702-.855 1.08-1.511 1.135-.748.073-1.121-.241-1.121-.943 0-.438.556-.948 1.668-1.532 1.166-.61 2.288-.916 3.363-.916 1.85 0 2.766.88 2.748 2.64l-.055 5.632c-.009.592.242.889.752.889.1 0 .292-.023.575-.069a5.74 5.74 0 01.492-.068c.264 0 .396.178.396.533zm-4.21-3.118c.008-.228-.044-.378-.158-.451-.114-.073-.294-.087-.54-.041-2.197.392-3.295 1.107-3.295 2.146 0 1.048.57 1.572 1.71 1.572.455 0 .924-.086 1.407-.26.565-.2.848-.441.848-.724zm20.343 3.144c0 .438-.4.812-1.203 1.121a5.962 5.962 0 01-2.16.41c-1.978 0-2.967-1.052-2.967-3.158v-4.949c0-.629-.05-1.014-.15-1.155-.1-.141-.433-.28-.998-.417-.146-.037-.22-.178-.22-.424 0-.264.056-.424.165-.478.984-.483 1.841-1.35 2.57-2.598.1-.173.296-.228.588-.164.2.064.305.182.315.355l.054 1.71c0 .127.023.218.069.273.063.082.21.123.437.123h3.049c.173 0 .173.214 0 .642-.21.52-.52.78-.93.78h-2.064c-.356 0-.574.059-.656.177-.064.082-.096.306-.096.67v4.471c0 1.13.1 1.846.3 2.147.265.382.88.574 1.846.574.32 0 .707-.053 1.163-.157.455-.105.697-.158.724-.158.11 0 .164.069.164.205zm6.85-14.533c0 .42-.158.81-.472 1.17-.314.36-.658.54-1.032.54-.429 0-.78-.128-1.053-.384-.273-.255-.41-.588-.41-.998 0-.4.166-.774.499-1.12.333-.347.69-.52 1.073-.52.93 0 1.395.437 1.395 1.312zM401 161.95c-.045.264-.155.414-.328.45-.045.01-.264 0-.656-.026a24.435 24.435 0 00-4.006.054c-.355.037-.579.023-.67-.04-.091-.064-.137-.21-.137-.438 0-.21.242-.383.725-.52.529-.155.793-.66.793-1.517v-3.582c0-.72-.073-1.226-.219-1.518-.2-.4-.615-.706-1.244-.916-.282-.1-.424-.25-.424-.451 0-.264.205-.46.616-.588a7.905 7.905 0 002.037-.943c.474-.328.765-.492.875-.493.364 0 .542.237.533.711a477.838 477.838 0 00-.055 7.301c0 .593.087 1.016.26 1.272.191.282.556.483 1.094.601.592.137.861.351.806.643zm24.076-.028c0 .301-.14.442-.423.424-1.86-.136-3.592-.136-5.196 0-.355.028-.533-.132-.533-.478 0-.274.242-.42.725-.438.61-.036.916-.533.916-1.49v-3.637c0-2.041-.83-3.062-2.489-3.062-.875 0-1.677.16-2.406.478-.665.283-1.002.565-1.011.848l-.055 5.428c0 .565.068.938.205 1.12.1.128.323.22.67.274.802.137 1.203.306 1.203.506 0 .173-.023.292-.068.356-.055.09-.22.132-.493.123-1.039-.037-2.552-.019-4.539.054-.282.01-.465-.013-.547-.068-.082-.055-.123-.182-.123-.383 0-.237.26-.383.78-.437.565-.064.847-.58.847-1.545v-3.72c0-1.002-.228-1.776-.683-2.323-.401-.492-.912-.739-1.532-.739-.911 0-1.731.185-2.46.554-.73.37-1.094.763-1.094 1.183v4.99c0 .565.146.957.437 1.176.265.2.743.323 1.436.369.374.018.56.146.56.383 0 .264-.15.396-.45.396-2.28 0-3.93.064-4.95.192-.346.045-.57.045-.67 0-.082-.046-.123-.155-.123-.329 0-.227.337-.423 1.012-.587.41-.11.615-.643.615-1.6v-4.197c0-1.067-.287-1.682-.861-1.846-.483-.137-.777-.237-.882-.3-.105-.065-.157-.17-.157-.315 0-.164.474-.51 1.421-1.04 1.003-.564 1.618-.847 1.846-.847.192 0 .353.276.486.827.132.552.234.827.307.827.1 0 .378-.14.834-.423a8.821 8.821 0 011.531-.793 6.303 6.303 0 012.31-.438c.639 0 1.195.137 1.669.41.328.183.624.433.889.752l.328.41.71-.41a9.517 9.517 0 011.628-.752 6.76 6.76 0 012.255-.41c2.498 0 3.746 1.372 3.747 4.115v4.43c0 .52.123.889.369 1.107.218.183.647.338 1.285.465.483.091.724.228.724.41zm11.554-1.927c0 .392-.53.88-1.587 1.463-1.203.647-2.438.97-3.705.97-1.376 0-2.534-.45-3.472-1.353-1.003-.957-1.504-2.233-1.504-3.828 0-1.805.56-3.254 1.681-4.348 1.048-1.02 2.334-1.531 3.856-1.531.902 0 1.745.287 2.529.861.702.51 1.167 1.094 1.395 1.75.082.228.205.356.369.383.237.045.355.205.355.478 0 .374-.446.693-1.34.957l-6.302 1.873c.41 2.17 1.522 3.254 3.336 3.254 1.048 0 2.242-.382 3.582-1.148.2-.119.396-.178.587-.178.146 0 .22.132.22.397zm-3.241-5.483c0-.501-.203-.94-.608-1.32-.406-.377-.905-.566-1.497-.566-1.678 0-2.516 1.207-2.516 3.623v.328l3.719-1.121c.601-.174.902-.488.902-.944z" font-weight="400" font-size="28" font-family="High Tower Text" text-anchor="end"/></g></svg>